<?xml version="1.0" encoding="UTF-8"?>
<svg width="84px" height="80px" viewBox="0 0 84 80" version="1.1" xmlns="http://www.w3.org/2000/svg" xmlns:xlink="http://www.w3.org/1999/xlink">
    <!-- Generator: Sketch 52.5 (67469) - http://www.bohemiancoding.com/sketch -->
    <title>airdrop</title>
    <desc>Created with Sketch.</desc>
    <defs>
        <linearGradient x1="28.104881%" y1="0%" x2="80.8159317%" y2="113.005395%" id="linearGradient-1">
            <stop stop-color="#65179B" offset="0%"></stop>
            <stop stop-color="#1800AB" offset="100%"></stop>
        </linearGradient>
        <linearGradient x1="50%" y1="0%" x2="50%" y2="98.1846098%" id="linearGradient-2">
            <stop stop-color="#610AAB" offset="0%"></stop>
            <stop stop-color="#6E00CD" offset="100%"></stop>
        </linearGradient>
    </defs>
    <g id="Page-1" stroke="none" stroke-width="1" fill="none" fill-rule="evenodd" opacity="0.92703683">
        <g id="2.-Chưa-hiển-thị-người-Copy" transform="translate(-917.000000, -759.000000)" fill="url(#linearGradient-2)">
            <g id="airdrop" transform="translate(917.000000, 759.000000)">
                <path d="M42,-4.74864775e-14 C18.8409119,-4.74864775e-14 0,18.903678 0,42.1399177 C0,57.8240741 8.61712655,72.1206275 22.4880981,79.4508744 C23.6910096,80.0861626 25.1791076,79.6231997 25.8129273,78.4169238 C26.4461059,77.2100051 25.9846801,75.7169496 24.7817688,75.0816616 C12.5315551,68.6078961 4.921875,55.9857253 4.921875,42.1399177 C4.921875,21.6268003 21.5549926,4.9382716 42,4.9382716 C62.4450074,4.9382716 79.078125,21.6268003 79.078125,42.1399177 C79.078125,56.2114198 71.2877197,68.9274691 58.7471924,75.3260031 C57.5359496,75.94393 57.0533752,77.4305556 57.6692504,78.6458334 C58.1037598,79.5029579 58.9682922,79.9961419 59.8648682,79.9961419 C60.2404176,79.9961419 60.6210938,79.9099794 60.9786988,79.7273663 C67.7885742,76.253215 73.5384521,70.9780092 77.6054078,64.4727366 C81.7890015,57.7803498 84,50.0585134 84,42.1399177 C84,18.903678 65.1590881,-5.68434189e-14 42,-4.74864775e-14 Z" id="Path"></path>
                <path d="M66.6984559,57.7218364 C69.6317139,53.0568415 71.1819764,47.6684672 71.1819764,42.1399177 C71.1819764,25.9953704 58.0909424,12.8600823 42,12.8600823 C25.9084168,12.8600823 12.8173828,25.9953704 12.8173828,42.1399177 C12.8173828,47.6684672 14.3676453,53.0561985 17.3009033,57.7218364 C20.1527711,62.2563014 24.1793518,65.9227109 28.9461365,68.3243312 C30.1612244,68.9358281 31.6403504,68.44393 32.2498168,67.2254372 C32.8592834,66.0063014 32.3696594,64.5222479 31.1545715,63.9107509 C22.8796691,59.7421554 17.7392578,51.4004629 17.7392578,42.1399177 C17.7392578,28.7178499 28.6224976,17.7983539 42,17.7983539 C55.3768615,17.7983539 66.2601014,28.7178499 66.2601014,42.1399177 C66.2601014,51.4004629 61.1196899,59.7427984 52.8447875,63.9107509 C51.6296996,64.5228909 51.1394348,66.0063014 51.7495422,67.2254372 C52.1814881,68.0883488 53.0492248,68.58732 53.9509277,68.58732 C54.321991,68.58732 54.6988221,68.5024435 55.0532227,68.3243312 C59.8200074,65.9227109 63.8472289,62.2569445 66.6984559,57.7218364 Z" id="Path"></path>
                <path d="M58.3645935,42.1399177 C58.3645935,33.0864198 51.0234375,25.7208076 42,25.7208076 C32.9765625,25.7208076 25.6354065,33.0864198 25.6354065,42.1399177 C25.6354065,48.3873457 29.1012268,54.0142747 34.6799926,56.8235597 C35.0337524,57.0016718 35.4105836,57.0865483 35.7816467,57.0865483 C36.6833496,57.0865483 37.5510863,56.5875771 37.9830322,55.7246657 C38.5924988,54.5055299 38.102234,53.0221193 36.8877869,52.4099794 C32.9829711,50.4436728 30.5572815,46.5084876 30.5572815,42.1399177 C30.5572815,35.8095422 35.6906434,30.6590792 42,30.6590792 C48.3093566,30.6590792 53.4427185,35.8095422 53.4427185,42.1399177 C53.4427185,46.5078446 51.0176697,50.4430298 47.1128539,52.4093365 C45.898407,53.0214764 45.4081422,54.5048869 46.0176086,55.7240227 C46.627716,56.9425154 48.106842,57.4344135 49.3212891,56.8229167 C54.8994141,54.0129886 58.3645935,48.3867027 58.3645935,42.1399177 Z" id="Path"></path>
            </g>
        </g>
    </g>
</svg>