<?xml version="1.0" encoding="UTF-8"?>
<svg width="30px" height="30px" viewBox="0 0 30 30" version="1.1" xmlns="http://www.w3.org/2000/svg" xmlns:xlink="http://www.w3.org/1999/xlink">
    <!-- Generator: Sketch 52.5 (67469) - http://www.bohemiancoding.com/sketch -->
    <title>Fill 1</title>
    <desc>Created with Sketch.</desc>
    <g id="Page-1" stroke="none" stroke-width="1" fill="none" fill-rule="evenodd">
        <g id="5.-Popup---Chá»n-File" transform="translate(-1307.000000, -224.000000)" fill="#A7A7A7">
            <path d="M1322.00639,224 C1319.94461,224 1318.00001,224.392724 1316.17252,225.178191 C1314.34504,225.963658 1312.75187,227.036333 1311.39297,228.396247 C1310.03407,229.75616 1308.9622,231.344656 1308.17732,233.161782 C1307.39243,234.978907 1307,236.919098 1307,238.982412 C1307,241.069175 1307.39243,243.021093 1308.17732,244.838218 C1308.9622,246.655344 1310.03407,248.24384 1311.39297,249.603751 C1312.75187,250.963664 1314.34504,252.036338 1316.17252,252.821805 C1318.00001,253.607272 1319.94461,254 1322.00639,254 C1324.06817,254 1326.01277,253.607272 1327.84025,252.821805 C1329.66774,252.036338 1331.26091,250.963664 1332.6198,249.603751 C1333.9787,248.24384 1335.05058,246.655344 1335.83546,244.838218 C1336.62034,243.021093 1337.01278,241.069175 1337.01278,238.982412 C1337.01278,236.919098 1336.62034,234.978907 1335.83546,233.161782 C1335.05058,231.344656 1333.9787,229.75616 1332.6198,228.396247 C1331.26091,227.036333 1329.66774,225.963658 1327.84025,225.178191 C1326.01277,224.392724 1324.06817,224 1322.00639,224 Z M1329,243.660023 L1326.64537,246.01641 L1322.00639,241.338803 L1317.36741,246.01641 L1315.01278,243.660023 L1319.65176,238.982412 L1315.01278,234.339973 L1317.36741,231.983586 L1322.00639,236.626024 L1326.64537,231.983586 L1329,234.339973 L1324.36102,238.982412 L1329,243.660023 Z" id="Fill-1"></path>
        </g>
    </g>
</svg>